HIERARCHY
ROOT Hips
{
	OFFSET 0.00000 0.00000 0.00000
	CHANNELS 6 Xposition Yposition Zposition Zrotation Yrotation Xrotation 
	JOINT LHipJoint
	{
		OFFSET 0 0 0
		CHANNELS 3 Zrotation Yrotation Xrotation
		JOINT LeftHip
		{
			OFFSET 2.10660 -1.59283 1.11709
			CHANNELS 3 Zrotation Yrotation Xrotation
			JOINT LeftKnee
			{
				OFFSET 2.03633 -5.59477 0.00000
				CHANNELS 3 Zrotation Yrotation Xrotation
				JOINT LeftAnkle
				{
					OFFSET 2.74354 -7.53782 0.00000
					CHANNELS 3 Zrotation Yrotation Xrotation
					JOINT LeftToe
					{
						OFFSET 0.09177 -0.25215 1.99109
						CHANNELS 3 Zrotation Yrotation Xrotation
						End Site
						{
							OFFSET 0.00000 -0.00000 1.01710
						}
					}
				}
			}
		}
	}
	JOINT RHipJoint
	{
		OFFSET 0 0 0
		CHANNELS 3 Zrotation Yrotation Xrotation
		JOINT RightHip
		{
			OFFSET -1.86456 -1.59283 1.11709
			CHANNELS 3 Zrotation Yrotation Xrotation
			JOINT RightKnee
			{
				OFFSET -2.09328 -5.75123 0.00000
				CHANNELS 3 Zrotation Yrotation Xrotation
				JOINT RightAnkle
				{
					OFFSET -2.65375 -7.29113 0.00000
					CHANNELS 3 Zrotation Yrotation Xrotation
					JOINT RightToe
					{
						OFFSET -0.08891 -0.24428 1.95541
						CHANNELS 3 Zrotation Yrotation Xrotation
						End Site
						{
							OFFSET -0.00000 -0.00000 0.99928
						}
					}
				}
			}
		}
	}
	JOINT lowerback
	{
		OFFSET 0 0 0
		CHANNELS 3 Zrotation Yrotation Xrotation
		JOINT Chest
		{
			OFFSET -0.11002 1.82513 -0.30878
			CHANNELS 3 Zrotation Yrotation Xrotation
			JOINT Chest2
			{
				OFFSET 0.02136 1.89008 0.15052
				CHANNELS 3 Zrotation Yrotation Xrotation
				JOINT lowerneck
				{
					OFFSET 0 0 0
					CHANNELS 3 Zrotation Yrotation Xrotation
					JOINT Neck
					{
						OFFSET -0.02611 1.82648 0.12298
						CHANNELS 3 Zrotation Yrotation Xrotation
						JOINT Head
						{
							OFFSET 0.06033 1.80858 -0.32888
							CHANNELS 3 Zrotation Yrotation Xrotation
							End Site
							{
								OFFSET 0.01403 1.85203 -0.12607
							}
						}
					}
				}
				JOINT LeftCollar
				{
					OFFSET 0 0 0
					CHANNELS 3 Zrotation Yrotation Xrotation
					JOINT LeftShoulder
					{
						OFFSET 3.64598 0.79256 -0.42249
CHANNELS 3 Zrotation Xrotation Yrotation
						JOINT LeftElbow
						{
OFFSET 0 -4.923830 0.000000
CHANNELS 3 Zrotation Xrotation Yrotation
							JOINT LeftWrist
							{
OFFSET 0 -2.658260 0.000000
CHANNELS 3 Zrotation Xrotation Yrotation
								JOINT lhand
								{
									OFFSET 0 0 0
CHANNELS 3 Zrotation Xrotation Yrotation
									JOINT LFingers
									{
OFFSET 0 -0.733430 0.000000
CHANNELS 3 Zrotation Xrotation Yrotation
										End Site
										{
OFFSET 0 -0.591310 0.000000
										}
									}
								}
								JOINT LThumb
								{
OFFSET 0 0.000000 0.000000
CHANNELS 3 Zrotation Xrotation Yrotation
									End Site
									{
OFFSET 0 -0.600340 0.600340
									}
								}
							}
						}
					}
				}
				JOINT RightCollar
				{
					OFFSET 0 0 0
					CHANNELS 3 Zrotation Yrotation Xrotation
					JOINT RightShoulder
					{
						OFFSET -3.83899 0.50520 -0.46242
CHANNELS 3 Zrotation Xrotation Yrotation
						JOINT RightElbow
						{
OFFSET 0 -4.636040 0.000000
CHANNELS 3 Zrotation Xrotation Yrotation
							JOINT RightWrist
							{
OFFSET 0 -2.862430 -0.000000
CHANNELS 3 Zrotation Xrotation Yrotation
								JOINT rhand
								{
									OFFSET 0 0 0
CHANNELS 3 Zrotation Xrotation Yrotation
									JOINT RFingers
									{
OFFSET 0 -0.758910 0.000000
CHANNELS 3 Zrotation Xrotation Yrotation
										End Site
										{
OFFSET 0 -0.611850 0.000000
										}
									}
								}
								JOINT RThumb
								{
OFFSET 0 0.000000 0.000000
CHANNELS 3 Zrotation Xrotation Yrotation
									End Site
									{
OFFSET 0 -0.621190 0.621190
									}
								}
							}
						}
					}
				}
			}
		}
	}
}
MOTION
Frames: 11
Frame Time: 0.008333333333333333
1.401800 15.456700 -19.156700 73.416700 -84.460700 -72.423500 0.000000 0.000000 0.000000 -5.979500 -17.799500 -7.986600 2.552100 9.932000 28.756900 0.879100 2.236200 -18.654000 1.168000 -6.860400 -19.302400 0.000000 0.000000 0.000000 24.849200 8.417200 -22.402000 -6.998700 -15.330800 48.869400 -2.461800 -4.296400 -31.404100 -0.430500 -4.210800 11.670600 -9.567700 1.476400 16.200800 0.507600 -0.035100 -4.218300 6.026200 0.831800 -13.997300 -4.715100 -5.282600 -10.877500 3.711100 -7.554500 20.637400 1.199100 -3.690100 8.534800 0.000000 0.000000 0.000000 2.742000 -0.923300 -12.751300 10.531900 -17.567200 1.631800 3.178100 -2.286600 -18.438500 0.000000 0.000000 0.000000 -7.125000 0.000000 0.000000 -23.574300 46.977000 1.215700 0.000000 0.000000 0.000000 -4.296000 4.468300 35.625500 -13.471800 -21.974600 -2.627200 -5.559100 -13.125300 -16.333100 0.000000 0.000000 0.000000 7.125000 0.000000 -0.000000 14.763300 13.945700 11.154100
1.450538 15.436111 -18.783396 93.854553 -85.053297 -93.154316 0.000000 0.000000 0.000000 -6.237423 -13.673362 -10.301216 3.025566 10.736283 31.395595 0.964130 -0.227909 -18.489312 1.385918 -7.448286 -21.050714 0.000000 0.000000 0.000000 23.492704 8.929058 -23.112684 -7.390941 -15.652450 50.337735 -2.421949 -3.009229 -30.601998 -0.293020 -3.480501 9.619449 -9.466933 1.422148 16.443857 0.815417 -0.060409 -4.075224 6.331294 0.825527 -13.968442 -4.884746 -5.329140 -10.789394 4.120137 -7.706789 20.726083 1.346466 -3.742210 8.579739 0.000000 0.000000 0.000000 3.400760 -0.107069 -16.481235 11.031232 -18.336006 1.785785 4.688540 -5.608862 -18.908102 0.000000 0.000000 0.000000 -7.125000 0.000000 0.000000 -22.433443 47.610113 1.517015 0.000000 0.000000 0.000000 -4.820315 3.796307 35.971938 -13.461067 -21.959009 -2.623240 -5.522541 -12.697426 -16.802040 0.000000 0.000000 0.000000 7.125000 0.000000 0.000000 14.766649 13.492869 11.303453
1.508643 15.426541 -18.232707 120.743000 -85.032777 -120.459947 0.000000 0.000000 0.000000 -6.805322 -8.970670 -13.475283 3.761236 11.835667 35.153196 1.035728 -1.607526 -18.765551 2.573873 -9.971021 -28.882928 0.000000 0.000000 0.000000 21.732727 8.873358 -23.864756 -7.709071 -15.901060 51.507933 -2.136411 -3.277964 -28.941200 -0.000200 0.086892 -0.238686 -9.183523 1.560868 17.229713 1.240909 0.177926 -3.860355 6.599706 0.945736 -14.231014 -4.167164 -5.365609 -11.201416 3.703598 -7.782240 20.658557 1.071309 -3.755973 8.588286 0.000000 0.000000 0.000000 2.796489 -0.491078 -14.626863 10.528257 -17.561593 1.630772 3.537948 -1.341248 -18.245021 0.000000 0.000000 0.000000 -7.125000 0.000000 0.000000 -23.169124 46.846605 1.114282 0.000000 0.000000 0.000000 -6.102305 2.610964 35.795126 -13.317313 -21.750387 -2.569651 -6.086031 -11.999795 -16.686904 0.000000 0.000000 0.000000 7.125000 0.000000 0.000000 14.403827 13.571725 10.981593
1.587290 15.454151 -17.554995 143.386875 -84.238115 -142.597713 0.000000 0.000000 0.000000 -7.382686 -4.369470 -18.067008 4.615739 12.937524 39.135091 1.163851 -5.190906 -19.330562 2.210888 -9.288484 -26.704822 0.000000 0.000000 0.000000 19.415397 9.315839 -25.524249 -7.841844 -16.001694 51.991009 -1.771091 -2.975687 -26.355903 -0.200564 2.880910 -7.947558 -8.957854 1.425437 17.244546 1.729030 0.113824 -3.862242 7.054450 0.928201 -14.229251 -4.576765 -5.586110 -11.184811 4.044362 -8.081843 20.481280 1.218312 -3.897203 8.571352 0.000000 0.000000 0.000000 3.328635 0.032257 -16.646603 10.425746 -17.402804 1.599925 3.644590 -1.859859 -18.247227 0.000000 0.000000 0.000000 -7.125000 0.000000 0.000000 -23.075063 46.862541 1.118317 0.000000 0.000000 0.000000 -7.202872 1.318832 35.681839 -13.135688 -21.485721 -2.502784 -6.556555 -12.050937 -16.743844 0.000000 0.000000 0.000000 7.125000 0.000000 0.000000 14.094174 13.487808 10.755540
1.627214 15.519661 -16.750455 163.136715 -82.406174 -162.555023 0.000000 0.000000 0.000000 -9.182329 -3.563277 -19.538342 5.341170 13.757925 42.276445 1.313845 -2.585227 -20.974616 2.741999 -10.264884 -29.839066 0.000000 0.000000 0.000000 17.162970 9.801928 -25.428292 -7.489995 -15.731049 50.704126 -1.404571 -2.152048 -23.256602 -0.678751 5.267896 -14.674197 -7.752219 1.312531 17.229649 1.933579 0.272902 -3.625841 6.542843 0.887007 -13.942053 -4.397080 -5.830741 -11.273703 4.268974 -8.506719 20.343389 1.212530 -4.064030 8.563457 0.000000 0.000000 0.000000 3.604640 -1.229621 -9.551172 9.029856 -15.208048 1.207955 -3.139628 8.727173 -12.921181 0.000000 0.000000 0.000000 -7.125000 0.000000 0.000000 -26.686406 41.264933 -2.678175 0.000000 0.000000 0.000000 -7.663813 0.368939 35.204329 -12.963729 -21.234042 -2.440129 -6.133084 -11.331164 -16.973105 0.000000 0.000000 0.000000 7.125000 0.000000 0.000000 14.362090 13.290615 11.035564
1.700941 15.577896 -15.972882 170.897871 -79.738349 -171.006528 0.000000 0.000000 0.000000 -11.313815 -0.875286 -20.738535 5.828817 14.260417 44.290928 1.391493 -3.334237 -21.459227 2.121681 -9.111411 -26.146930 0.000000 0.000000 0.000000 14.835818 10.852691 -24.277769 -6.912677 -15.257893 48.543307 -1.049253 -2.565598 -20.433114 -1.811538 8.461729 -24.125742 -8.377403 1.520663 17.968430 2.100746 0.373954 -3.432870 7.079126 1.003518 -14.195267 -4.257574 -6.039549 -11.330224 4.449340 -8.916175 20.648981 1.195387 -4.234660 8.699683 0.000000 0.000000 0.000000 4.211654 -0.259343 -20.929169 10.336184 -17.263223 1.573657 3.097359 -2.755148 -17.840149 0.000000 0.000000 0.000000 -7.125000 0.000000 0.000000 -23.382606 46.418379 0.864824 0.000000 0.000000 0.000000 -7.828715 -0.500974 34.425852 -12.628723 -20.740809 -2.320190 -6.644858 -10.499544 -16.848181 0.000000 0.000000 0.000000 7.125000 0.000000 0.000000 14.032739 13.380688 10.738369
1.778971 15.638926 -15.104863 174.288731 -76.849160 -174.334761 0.000000 0.000000 0.000000 -14.375485 -0.142443 -22.454363 6.287531 14.701257 46.124845 1.443169 -3.993127 -21.762675 0.569727 -4.813184 -13.380551 0.000000 0.000000 0.000000 11.500198 11.956101 -24.317801 -6.251318 -14.667584 45.982310 -0.807131 -0.494595 -17.162864 -1.910586 8.675905 -24.787578 -7.722557 1.582120 18.024047 2.055552 0.597338 -3.480067 6.581354 1.054195 -14.308238 -4.511197 -6.172983 -11.158016 4.666634 -9.094722 20.373263 1.295569 -4.325038 8.606065 0.000000 0.000000 0.000000 3.583306 -0.910840 -18.344656 9.822149 -16.460869 1.424174 4.264228 0.229257 -17.553003 0.000000 0.000000 0.000000 -7.125000 0.000000 0.000000 -22.228467 46.301747 0.750945 0.000000 0.000000 0.000000 -8.983246 -1.370401 35.048767 -12.341610 -20.314462 -2.219897 -6.635489 -11.697352 -16.978294 0.000000 0.000000 0.000000 7.125000 0.000000 0.000000 14.034388 13.254506 10.778323
1.841203 15.688737 -14.315551 177.435057 -74.401686 -177.354055 0.000000 0.000000 0.000000 -16.909215 0.947031 -23.988793 6.470291 14.869092 46.841167 1.452853 -1.912386 -22.250934 0.437782 -4.245686 -11.768946 0.000000 0.000000 0.000000 8.955888 13.865546 -23.344214 -5.318550 -13.733780 42.181488 -0.569681 0.933731 -13.967338 -1.082484 6.612645 -18.572884 -7.216263 1.587765 17.809607 2.108096 0.743824 -3.607267 6.303584 1.086425 -14.342983 -3.888937 -6.247948 -10.732764 4.296829 -9.277471 20.346423 1.065485 -4.420174 8.478934 0.000000 0.000000 0.000000 3.730027 -0.715438 -20.444857 9.860568 -16.521224 1.435036 3.466429 -1.270907 -17.333919 0.000000 0.000000 0.000000 -7.125000 0.000000 0.000000 -22.841613 45.999573 0.594430 0.000000 0.000000 0.000000 -8.624535 -2.397682 29.153025 -11.373966 -18.859221 -1.895003 -5.458257 -5.961995 -17.987378 0.000000 0.000000 0.000000 7.125000 0.000000 0.000000 14.761796 12.347314 11.666841
1.842135 15.723926 -13.643700 179.162715 -72.621510 -179.490541 0.000000 0.000000 0.000000 -19.122881 1.229927 -24.049975 6.500279 14.896263 46.957941 1.518186 -3.359002 -22.448315 0.024626 1.010742 2.778335 0.000000 0.000000 0.000000 7.331654 16.302934 -20.347788 -4.274338 -12.516685 37.585354 -0.334102 -1.979187 -11.835243 -2.579949 9.981568 -28.917439 -7.161473 1.592487 17.375009 2.407185 0.837839 -3.358821 6.579978 1.110032 -13.808069 -4.142503 -6.426469 -10.743826 4.467348 -9.459469 19.784111 1.148764 -4.508676 8.321405 0.000000 0.000000 0.000000 2.135996 -1.747360 -13.276713 9.322660 -15.673220 1.285912 3.369133 5.931088 -16.700565 0.000000 0.000000 0.000000 -7.125000 0.000000 0.000000 -22.665075 45.404099 0.237601 0.000000 0.000000 0.000000 -9.221560 -2.632147 27.979945 -11.466529 -18.999785 -1.925069 -5.713163 -6.408104 -17.848035 0.000000 0.000000 0.000000 7.125000 0.000000 0.000000 14.602496 12.466633 11.494391
1.815693 15.735325 -13.016905 181.509710 -71.146242 -182.038090 0.000000 0.000000 0.000000 -20.897217 1.460684 -24.288963 6.485671 14.883037 46.901092 1.571623 -3.117410 -22.902220 0.298843 3.506776 9.693815 0.000000 0.000000 0.000000 6.192986 17.631655 -17.544835 -3.280855 -11.136321 32.741131 -0.115790 -4.064945 -9.207895 -4.019921 12.186276 -36.394982 -6.614042 1.465345 17.431393 2.577159 0.804391 -3.520892 6.472442 1.072171 -14.015394 -3.622593 -6.272820 -10.387424 4.413134 -9.365258 19.757017 1.070402 -4.449755 8.214604 0.000000 0.000000 0.000000 3.535911 0.013439 -25.631637 10.465743 -17.464449 1.612125 5.180704 -4.874093 -18.753216 0.000000 0.000000 0.000000 -7.125000 0.000000 0.000000 -21.923210 47.533630 1.435211 0.000000 0.000000 0.000000 -9.439084 -2.140153 27.993543 -11.520535 -19.081613 -1.942739 -5.557588 -7.126950 -17.685763 0.000000 0.000000 0.000000 7.125000 0.000000 0.000000 14.708781 12.633740 11.530894
1.759143 15.714877 -12.453526 182.609855 -70.051693 -183.257055 0.000000 0.000000 0.000000 -22.933620 0.850940 -24.458017 6.522263 14.916021 47.043309 1.650408 -2.343207 -23.658881 0.464955 4.356495 12.084634 0.000000 0.000000 0.000000 4.810264 20.473349 -14.400152 -2.491104 -9.821711 28.401371 0.071349 -6.845168 -7.759336 -4.701456 13.036655 -39.510617 -5.578278 1.500427 17.340676 2.532123 1.082262 -3.739484 5.741337 1.122393 -14.229852 -3.481171 -6.237273 -10.599452 4.219006 -9.342780 20.197659 0.972306 -4.443965 8.383141 0.000000 0.000000 0.000000 3.429451 0.245976 -27.340776 10.559002 -17.609165 1.639988 3.670805 -5.568568 -18.667589 0.000000 0.000000 0.000000 -7.125000 0.000000 0.000000 -23.237090 47.252847 1.359750 0.000000 0.000000 0.000000 -10.107248 -1.239895 29.671428 -11.802361 -19.507628 -2.035816 -6.092896 -8.978628 -17.938802 0.000000 0.000000 0.000000 7.125000 0.000000 0.000000 14.354448 12.354311 11.320417
